<?xml version="1.0" encoding="utf-8"?>
<!-- Generator: Adobe Illustrator 22.0.1, SVG Export Plug-In . SVG Version: 6.00 Build 0)  -->
<svg version="1.1" xmlns="http://www.w3.org/2000/svg" xmlns:xlink="http://www.w3.org/1999/xlink" x="0px" y="0px"
	 viewBox="0 0 595.3 595.3" style="enable-background:new 0 0 595.3 595.3;" xml:space="preserve">
<style type="text/css">
	.st0{fill:none;stroke:#000000;stroke-width:3;stroke-miterlimit:10;}
	.st1{fill:none;stroke:#000000;stroke-width:2;stroke-miterlimit:10;}
	.st2{fill:none;stroke:#000000;stroke-miterlimit:10;}
	.st3{opacity:0.8;}
	.st4{display:none;}
	.st5{display:inline;fill:none;stroke:#000000;stroke-width:3;stroke-miterlimit:10;}
	.st6{display:inline;fill:none;stroke:#000000;stroke-miterlimit:10;}
</style>
<g id="Calque_1">
	<g>
		
			<image style="overflow:visible;opacity:0.8;" width="1959" height="1285" xlink:href="8708CA0BBC7F8336.png"  transform="matrix(0.24 0 0 0.24 55.8161 136.6961)">
		</image>
		<g>
			<path class="st0" d="M501,144H75c-6.6,0-12,5.4-12,12v264c0,6.6,5.4,12,12,12h426c6.6,0,12-5.4,12-12V156
				C513,149.4,507.6,144,501,144z"/>
		</g>
	</g>
	<g>
		
			<image style="overflow:visible;opacity:0.8;" width="985" height="985" xlink:href="8708CA0BBC7F833A.png"  transform="matrix(0.24 0 0 0.24 172.6961 172.6961)">
		</image>
		<g>
			<circle class="st0" cx="288" cy="288" r="108"/>
		</g>
	</g>
	<g>
		
			<image style="overflow:visible;opacity:0.8;" width="685" height="266" xlink:href="8708CA0BBC7F833B.png"  transform="matrix(0.24 0 0 0.24 208.6961 200.2961)">
		</image>
		<g>
			<path class="st1" d="M215.3,252.2c13.2-26.8,40.8-45.2,72.7-45.2s59.5,18.4,72.7,45.2"/>
		</g>
	</g>
	<g>
		
			<image style="overflow:visible;opacity:0.8;" width="704" height="287" xlink:href="8708CA0BBC7F833C.png"  transform="matrix(0.24 0 0 0.24 206.2961 312.6161)">
		</image>
		<g>
			<path class="st1" d="M213.1,318.8c12.1,29.5,41.1,50.2,74.9,50.2s62.8-20.8,75-50.2"/>
		</g>
	</g>
	<g>
		
			<image style="overflow:visible;opacity:0.8;" width="455" height="155" xlink:href="8708CA0BBC7F833D.png"  transform="matrix(0.24 0 0 0.24 92.2961 119.1761)">
		</image>
		<g>
			<path class="st1" d="M180,144h-72c-4.9,0-9-4.1-9-9v0c0-4.9,4-9,9-9h72c4.9,0,9,4.1,9,9v0C189,139.9,184.9,144,180,144z"/>
		</g>
	</g>
	<g>
		
			<image style="overflow:visible;opacity:0.8;" width="822" height="841" xlink:href="8708CA0BBC7F8338.png"  transform="matrix(0.24 0 0 0.24 192.1361 187.5761)">
		</image>
		<g>
			<g>
				<path d="M212.7,226.2c1,0,1.9,0.4,2.8,1.1c1,0.8,1.7,1.7,2,2.7c0.3,1.2,0.1,2.4-0.8,3.5c-0.8,1.1-1.8,1.6-2.9,1.7
					c-1.1,0-2.1-0.4-3.2-1.1c-0.9-0.7-1.5-1.5-1.8-2.5c-0.4-1.2-0.2-2.4,0.7-3.6C210.4,226.8,211.5,226.2,212.7,226.2z M216.4,230.3
					c-0.3-0.8-0.8-1.5-1.6-2.1c-0.8-0.6-1.6-0.9-2.4-0.9c-0.8,0-1.5,0.4-2.1,1.2c-0.5,0.7-0.7,1.5-0.6,2.3c0.1,0.8,0.7,1.6,1.6,2.3
					c0.8,0.6,1.5,0.9,2.4,0.9c0.8,0,1.5-0.4,2.2-1.3C216.6,232,216.7,231.1,216.4,230.3z"/>
				<path d="M216,220.6l1-1l8,1.9l-4.9-4.9l0.8-0.8l6.1,6.1l-0.9,0.9l-8-1.8l4.9,4.9l-0.8,0.8L216,220.6z"/>
				<path d="M225.3,211.8l1.1-0.8l7.6,2.9l-4.2-5.5l0.9-0.7l5.2,6.8l-1,0.8l-7.7-2.9l4.2,5.5l-0.9,0.7L225.3,211.8z"/>
				<path d="M242.6,201.8c0.9,0.4,1.6,1.1,2.2,2.1c0.6,1.1,0.9,2.2,0.7,3.3c-0.2,1.2-0.9,2.2-2.1,2.9c-1.1,0.7-2.3,0.8-3.4,0.4
					c-1-0.4-1.8-1.2-2.5-2.3c-0.6-1-0.8-2-0.7-3c0.1-1.3,0.8-2.3,2.1-3C240.2,201.4,241.4,201.3,242.6,201.8z M244.4,207.1
					c0-0.9-0.2-1.7-0.7-2.5c-0.5-0.9-1.1-1.5-1.9-1.7s-1.5-0.2-2.3,0.3c-0.8,0.4-1.3,1.1-1.4,1.9c-0.2,0.8,0,1.7,0.6,2.8
					c0.5,0.8,1.1,1.4,1.8,1.7s1.6,0.2,2.5-0.3C243.9,208.6,244.4,207.9,244.4,207.1z"/>
				<path d="M250.7,204.7l1.1-0.5l0.5,1.2l-1.1,0.5L250.7,204.7z"/>
				<path d="M260.1,193.4l0.3,1l-2.8,0.9l2.4,7.2l-1.1,0.4l-2.4-7.2l-2.8,0.9l-0.3-1L260.1,193.4z"/>
				<path d="M317.8,193.9l1.1,0.4l-2.5,7.2l4.1,1.4l-0.3,1l-5.2-1.8L317.8,193.9z"/>
				<path d="M327.5,197.6l5.6,2.7l-0.5,1l-4.6-2.2l-1.1,2.4l4.3,2l-0.4,0.9l-4.3-2l-1.3,2.6l4.7,2.2l-0.4,0.9l-5.7-2.7L327.5,197.6z
					"/>
				<path d="M341.2,205l1,0.7l-4.2,6.3l3.6,2.4l-0.6,0.8l-4.5-3.1L341.2,205z"/>
				<path d="M351,212.1l1,0.8l-3.1,8.6l-1-0.8l1-2.6l-2.6-2.2l-2.4,1.4l-0.9-0.8L351,212.1z M349.2,217.3l1.4-3.8l-3.5,2
					L349.2,217.3z"/>
				<path d="M357.7,218.1l0.9,1l-2.1,7.9l5.1-4.8l0.8,0.8l-6.3,5.9l-0.9-1l2.1-7.9l-5.1,4.7l-0.8-0.8L357.7,218.1z"/>
				<path d="M360.3,232.2l0.7,1l-1,0.8l-0.7-1L360.3,232.2z"/>
				<path d="M370.4,233.6l0.9,1.4l-5,5.9l7.5-1.6l0.9,1.4l-7.4,4.4l-0.6-1l4.4-2.6c0.2-0.1,0.4-0.2,0.8-0.4s0.7-0.4,1.1-0.7
					l-7.5,1.6l-0.6-1l4.9-5.9l-0.2,0.1c-0.2,0.1-0.5,0.3-0.8,0.5c-0.4,0.2-0.6,0.4-0.8,0.5l-4.4,2.6l-0.6-1L370.4,233.6z"/>
			</g>
		</g>
	</g>
	<g>
		
			<image style="overflow:visible;opacity:0.8;" width="897" height="898" xlink:href="8708CA0BBC7F8339.png"  transform="matrix(0.24 0 0 0.24 183.2561 183.2561)">
		</image>
		<g>
			<g>
				<path d="M228,354.6l3.2,2.7c0.6,0.5,1,1.2,1.1,1.8c0.1,0.7-0.1,1.4-0.7,2c-0.5,0.6-1.1,0.9-1.8,1c-0.7,0.1-1.4-0.1-2.1-0.7
					l-2.3-1.9l-2.6,3.1l-1-0.8L228,354.6z M231,358.8c-0.1-0.3-0.4-0.6-0.8-0.9l-1.9-1.6l-2.1,2.5l1.9,1.6c0.4,0.4,0.9,0.6,1.3,0.6
					c0.4,0,0.8-0.2,1.2-0.7C231.1,359.8,231.2,359.3,231,358.8z"/>
				<path d="M237.1,361.8l1.1,0.7l-2.1,3.3l4.1,2.6l2.1-3.3l1.1,0.7l-5,8l-1.1-0.7l2.4-3.7l-4.1-2.6l-2.4,3.7l-1.1-0.7L237.1,361.8z
					"/>
				<path d="M254.5,372.6c0.2,1,0.1,2.1-0.4,3.3c-0.6,1.3-1.4,2.2-2.4,2.8c-1.2,0.7-2.5,0.7-4,0.1c-1.3-0.6-2.2-1.5-2.6-2.7
					c-0.3-1.1-0.2-2.4,0.4-3.7c0.5-1.2,1.2-2,2.2-2.6c1.2-0.7,2.6-0.8,4-0.1C253.3,370.3,254.2,371.3,254.5,372.6z M251.1,377.7
					c0.8-0.5,1.4-1.3,1.8-2.3c0.4-1,0.5-2,0.3-2.8c-0.3-0.9-0.9-1.5-1.8-1.9c-0.9-0.4-1.8-0.4-2.6,0c-0.8,0.4-1.5,1.2-2,2.4
					c-0.4,1-0.5,1.9-0.3,2.7c0.2,0.9,0.8,1.5,1.9,2C249.4,378.3,250.3,378.2,251.1,377.7z"/>
				<path d="M266.8,375.1l-0.3,1.1l-3.1-0.9l-2.3,8l-1.2-0.4l2.3-8l-3.1-0.9l0.3-1.1L266.8,375.1z"/>
				<path d="M278.3,378.5c0.5,0.9,0.6,2,0.5,3.3c-0.2,1.4-0.7,2.5-1.6,3.3c-1,1-2.3,1.3-3.8,1.1c-1.4-0.2-2.5-0.9-3.2-1.9
					c-0.6-1-0.8-2.2-0.6-3.6c0.2-1.3,0.7-2.3,1.4-3.1c1-1,2.3-1.4,3.8-1.2C276.5,376.6,277.7,377.3,278.3,378.5z M276.3,384.3
					c0.6-0.7,1-1.6,1.2-2.7c0.2-1.1,0-2-0.5-2.8c-0.5-0.8-1.2-1.2-2.2-1.4c-1-0.1-1.8,0.1-2.5,0.6c-0.7,0.6-1.2,1.5-1.4,2.8
					c-0.2,1,0,2,0.4,2.7c0.4,0.8,1.2,1.3,2.4,1.5C274.8,385.3,275.7,385,276.3,384.3z"/>
				<path d="M290.4,377.8c0.9,0.5,1.5,1.4,1.7,2.6l-1.3,0c-0.2-0.7-0.5-1.2-0.9-1.5c-0.5-0.3-1.1-0.5-1.8-0.5c-0.9,0-1.6,0.3-2.2,1
					c-0.6,0.7-0.9,1.6-0.9,2.9c0,1.1,0.2,2,0.7,2.7c0.5,0.7,1.3,1.1,2.4,1.1c0.8,0,1.5-0.3,2.1-0.7c0.5-0.5,0.8-1.3,0.8-2.4l-3,0
					l0-1.1l4.2,0l0,5.1l-0.8,0l-0.3-1.2c-0.4,0.5-0.8,0.8-1.1,1c-0.6,0.3-1.3,0.5-2.1,0.5c-1.1,0-2.1-0.4-2.8-1.1
					c-0.9-0.9-1.3-2.2-1.3-3.7c0-1.6,0.4-2.8,1.3-3.8c0.8-0.9,1.8-1.3,3.1-1.3C289,377.3,289.7,377.5,290.4,377.8z"/>
				<path d="M297.6,377.1l4.3-0.6c0.7-0.1,1.3-0.1,1.8,0.1c0.9,0.3,1.5,0.9,1.6,2c0.1,0.6,0,1-0.1,1.4c-0.2,0.4-0.5,0.7-0.8,1
					c0.4,0.1,0.7,0.2,0.9,0.5c0.2,0.2,0.4,0.6,0.5,1.1l0.2,1.2c0.1,0.4,0.1,0.6,0.2,0.8c0.1,0.3,0.3,0.5,0.5,0.5l0,0.2l-1.6,0.2
					c-0.1-0.1-0.1-0.2-0.1-0.3c0-0.1-0.1-0.4-0.2-0.7l-0.3-1.6c-0.1-0.6-0.4-1-0.8-1.1c-0.3-0.1-0.6-0.1-1.1,0l-2.8,0.4l0.6,4
					l-1.3,0.2L297.6,377.1z M302.3,380.8c0.6-0.1,1-0.3,1.3-0.6c0.3-0.3,0.4-0.7,0.3-1.4c-0.1-0.7-0.4-1.1-0.9-1.3
					c-0.3-0.1-0.6-0.1-1,0l-3,0.4l0.5,3.2L302.3,380.8z"/>
				<path d="M311.8,374.3l1.4-0.4l5.9,8.2l-1.4,0.4l-1.7-2.5l-3.6,1l-0.2,3l-1.3,0.4L311.8,374.3z M315.4,379.1l-2.5-3.6l-0.3,4.4
					L315.4,379.1z"/>
				<path d="M320.1,371.7l3.9-1.7c0.8-0.3,1.5-0.4,2.1-0.1c0.7,0.2,1.2,0.7,1.5,1.5c0.3,0.7,0.3,1.4,0.1,2c-0.2,0.7-0.7,1.2-1.6,1.6
					l-2.7,1.2l1.6,3.7l-1.2,0.5L320.1,371.7z M325.1,370.9c-0.3,0-0.7,0.1-1.1,0.3l-2.3,1l1.3,3l2.3-1c0.5-0.2,0.9-0.5,1.1-0.9
					c0.2-0.4,0.2-0.8,0-1.4C326.1,371.3,325.7,370.9,325.1,370.9z"/>
				<path d="M330.6,366.8l1.1-0.7l2,3.4l4.2-2.5l-2-3.4l1.1-0.7l4.8,8.1l-1.1,0.7l-2.3-3.8l-4.2,2.5l2.3,3.8l-1.1,0.7L330.6,366.8z"
					/>
				<path d="M340.5,360.6l1.2-0.9l5,1.9l-0.7-5.3l1.2-0.9l0.7,6.7l2.4,3l-1,0.8l-2.4-3L340.5,360.6z"/>
			</g>
		</g>
	</g>
	<g>
		
			<image style="overflow:visible;opacity:0.8;" width="75" height="76" xlink:href="8708CA0BBC7F8328.png"  transform="matrix(0.24 0 0 0.24 209.4161 245.8961)">
		</image>
		<g>
			<line class="st2" x1="216" y1="252.2" x2="215.3" y2="252.2"/>
		</g>
	</g>
	<g>
		<g class="st3">
			<polygon class="st0" points="304.4,290.8 304.4,290.8 304.4,290.8 304.4,290.8 			"/>
		</g>
		<g>
			<polygon class="st0" points="301.5,288 301.5,288 301.5,288 301.5,288 			"/>
		</g>
	</g>
	<g>
		
			<image style="overflow:visible;opacity:0.8;" width="139" height="130" xlink:href="8708CA0BBC7F8329.png"  transform="matrix(0.24 0 0 0.24 274.2161 181.8161)">
		</image>
		<g>
			<polygon class="st2" points="288.1,188.7 280.9,201.1 295.2,201.1 			"/>
		</g>
	</g>
	<g>
		
			<image style="overflow:visible;opacity:0.8;" width="343" height="328" xlink:href="844533B23E6DF64E.png"  transform="matrix(0.24 0 0 0.24 424.9361 154.4561)">
		</image>
		<g>
			<path class="st0" d="M482.4,220.2h-38.2c-6.6,0-12-5.4-12-12v-34.4c0-6.6,5.4-12,12-12h38.2c6.6,0,12,5.4,12,12v34.4
				C494.4,214.8,489,220.2,482.4,220.2z"/>
		</g>
	</g>
</g>
<g id="Calque_2" class="st4">
	<polyline class="st5" points="324.5,271.5 324.5,303.9 306.9,303.9 306.9,271.5 	"/>
	<polyline class="st5" points="324.5,271.5 324.5,303.9 338,303.9 	"/>
	<polyline class="st5" points="337.5,304.2 351,273.4 357.7,288.8 364.5,304.2 351,304.2 	"/>
	<polyline class="st5" points="364.2,304.2 350.5,304.2 357.4,288.8 364.2,273.4 378,304.2 	"/>
	<circle class="st5" cx="220.5" cy="288" r="16.2"/>
	<polygon class="st5" points="301.5,288 301.5,288 301.5,288 301.5,288 	"/>
	<polyline class="st5" points="252.9,271.8 252.9,299.6 252.9,304.2 	"/>
	<polyline class="st5" points="252.9,271.8 252.9,299.6 252.9,304.2 	"/>
	<line class="st5" x1="220.5" y1="271.8" x2="269.1" y2="271.8"/>
	<polyline class="st5" points="223.5,271.8 223.4,272.1 210.6,300.8 	"/>
	<polyline class="st6" points="274.5,261 288,288 301.5,315 	"/>
	<polyline class="st6" points="301.5,261 288,288 274.5,315 	"/>
	<line class="st6" x1="274.5" y1="261" x2="231.3" y2="261"/>
	<line class="st6" x1="274.5" y1="315" x2="231.3" y2="315"/>
	<line class="st6" x1="344.7" y1="315" x2="301.5" y2="315"/>
	<line class="st6" x1="344.7" y1="261" x2="301.5" y2="261"/>
</g>
<g id="Calque_3">
	<g>
		
			<image style="overflow:visible;opacity:0.8;" width="157" height="214" xlink:href="844533B23E6DF64A.png"  transform="matrix(0.24 0 0 0.24 299.6561 265.576)">
		</image>
		<g>
			<polyline class="st0" points="324.5,271.5 324.5,303.9 306.9,303.9 306.9,271.5 			"/>
		</g>
	</g>
	<g>
		
			<image style="overflow:visible;opacity:0.8;" width="134" height="214" xlink:href="844533B23E6DF649.png"  transform="matrix(0.24 0 0 0.24 317.1761 265.576)">
		</image>
		<g>
			<polyline class="st0" points="324.5,271.5 324.5,303.9 338,303.9 			"/>
		</g>
	</g>
	<g>
		
			<image style="overflow:visible;opacity:0.8;" width="200" height="222" xlink:href="844533B23E6DF646.png"  transform="matrix(0.24 0 0 0.24 330.3761 263.8961)">
		</image>
		<g>
			<polyline class="st0" points="337.5,304.2 351,273.4 357.7,288.8 364.5,304.2 351,304.2 			"/>
		</g>
	</g>
	<g>
		
			<image style="overflow:visible;opacity:0.8;" width="202" height="222" xlink:href="844533B23E6DF659.png"  transform="matrix(0.24 0 0 0.24 342.3761 263.8961)">
		</image>
		<g>
			<polyline class="st0" points="364.2,304.2 350.5,304.2 357.3,288.8 364.2,273.4 378,304.2 			"/>
		</g>
	</g>
	<g>
		
			<image style="overflow:visible;opacity:0.8;" width="220" height="219" xlink:href="844533B23E6DF65E.png"  transform="matrix(0.24 0 0 0.24 196.9361 264.6161)">
		</image>
		<g>
			<circle class="st0" cx="220.5" cy="288" r="16.2"/>
		</g>
	</g>
	<g>
		<g class="st3">
			<polygon class="st0" points="304.3,290.8 304.3,290.8 304.3,290.8 304.3,290.8 			"/>
		</g>
		<g>
			<polygon class="st0" points="301.5,288 301.5,288 301.5,288 301.5,288 			"/>
		</g>
	</g>
	<g>
		
			<image style="overflow:visible;opacity:0.8;" width="84" height="207" xlink:href="844533B23E6DF65C.png"  transform="matrix(0.24 0 0 0.24 245.6561 266.0561)">
		</image>
		<g>
			<polyline class="st0" points="252.9,271.8 252.9,299.6 252.9,304.2 			"/>
		</g>
	</g>
	<g>
		
			<image style="overflow:visible;opacity:0.8;" width="84" height="207" xlink:href="844533B23E6DF654.png"  transform="matrix(0.24 0 0 0.24 245.6561 266.0561)">
		</image>
		<g>
			<polyline class="st0" points="252.9,271.8 252.9,299.6 252.9,304.2 			"/>
		</g>
	</g>
	<g>
		
			<image style="overflow:visible;opacity:0.8;" width="275" height="84" xlink:href="844533B23E6DF655.png"  transform="matrix(0.24 0 0 0.24 214.6961 264.6161)">
		</image>
		<g>
			<line class="st0" x1="220.5" y1="271.8" x2="269.1" y2="271.8"/>
		</g>
	</g>
	<g>
		
			<image style="overflow:visible;opacity:0.8;" width="137" height="198" xlink:href="844533B23E6DF656.png"  transform="matrix(0.24 0 0 0.24 203.4161 265.3361)">
		</image>
		<g>
			<polyline class="st0" points="223.5,271.8 223.4,272.1 210.6,300.8 			"/>
		</g>
	</g>
	<g>
		
			<image style="overflow:visible;opacity:0.8;" width="188" height="299" xlink:href="844533B23E6DF67F.png"  transform="matrix(0.24 0 0 0.24 268.2161 255.0161)">
		</image>
		<g>
			<polyline class="st2" points="274.5,261 288,288 301.5,315 			"/>
		</g>
	</g>
	<g>
		
			<image style="overflow:visible;opacity:0.8;" width="188" height="299" xlink:href="844533B23E6DF67C.png"  transform="matrix(0.24 0 0 0.24 268.2161 255.0161)">
		</image>
		<g>
			<polyline class="st2" points="301.5,261 288,288 274.5,315 			"/>
		</g>
	</g>
	<g>
	</g>
	<g>
	</g>
	<g>
	</g>
	<g>
	</g>
	<g>
	</g>
	<g>
	</g>
</g>
</svg>
